<?xml version="1.0" standalone="no"?>
<!DOCTYPE svg PUBLIC "-//W3C//DTD SVG 20010904//EN"
 "http://www.w3.org/TR/2001/REC-SVG-20010904/DTD/svg10.dtd">
<svg version="1.0" xmlns="http://www.w3.org/2000/svg"
 width="512.000000pt" height="512.000000pt" viewBox="0 0 512.000000 512.000000"
 preserveAspectRatio="xMidYMid meet">
<metadata>
Created by potrace 1.14, written by Peter Selinger 2001-2017
</metadata>
<g transform="translate(0.000000,512.000000) scale(0.100000,-0.100000)"
fill="#000000" stroke="none">
<path d="M866 4949 c-101 -35 -185 -113 -232 -214 -31 -70 -33 -93 -34 -422
l0 -291 -47 1 c-73 2 -121 -11 -137 -36 -35 -52 -22 -122 27 -149 12 -7 51
-13 87 -13 l65 -1 3 -241 2 -241 -66 -1 c-79 -1 -119 -21 -135 -68 -9 -27 -7
-40 8 -70 24 -50 54 -64 131 -60 l62 2 0 -242 0 -243 -61 0 c-84 0 -126 -21
-139 -70 -12 -44 -3 -76 30 -105 16 -15 40 -21 96 -23 l74 -4 0 -239 0 -239
-62 0 c-75 0 -105 -14 -131 -57 -15 -26 -16 -38 -8 -70 15 -53 51 -73 135 -73
l66 0 0 -240 0 -240 -22 0 c-127 -3 -148 -10 -172 -59 -21 -43 -8 -96 30 -124
19 -14 42 -19 95 -18 l69 0 1 -297 c0 -163 2 -312 5 -330 6 -45 57 -151 91
-188 48 -52 113 -93 181 -114 63 -20 94 -20 1557 -20 1337 0 1498 2 1546 16
147 44 249 159 279 315 6 30 10 124 10 209 -1 85 -1 324 -1 530 l1 375 110 -1
c173 -1 251 35 314 146 l31 55 0 750 c-1 413 -4 762 -7 776 -17 73 -82 148
-158 181 -36 16 -69 21 -167 22 -102 1 -123 4 -124 16 0 8 0 249 -1 536 0 294
-4 544 -10 575 -24 134 -148 273 -273 306 -16 4 -712 9 -1545 10 -1498 2
-1516 2 -1574 -18z"/>
</g>
</svg>
